<svg width="843" height="276" viewBox="0 0 843 276" fill="none" xmlns="http://www.w3.org/2000/svg">
<path d="M585.31 200.052H731.7" stroke="#29563F" stroke-width="2"/>
<path d="M732.915 222.527H606.57" stroke="#29563F" stroke-width="2"/>
<path d="M606.467 222.575L584.836 214.776" stroke="#29563F" stroke-width="2"/>
<path d="M601.103 236.498L601.103 212.201" stroke="#29563F" stroke-width="2"/>
<path d="M596.243 236.498L596.243 209.771" stroke="#29563F" stroke-width="2"/>
<path d="M591.384 235.89L591.384 208.556" stroke="#29563F" stroke-width="2"/>
<path d="M606.467 229.385L584.836 221.585" stroke="#29563F" stroke-width="2"/>
<path d="M606.467 236.195L584.836 228.395" stroke="#29563F" stroke-width="2"/>
<path d="M732.915 229.209H606.57" stroke="#29563F" stroke-width="2"/>
<path d="M732.915 235.89H606.57" stroke="#29563F" stroke-width="2"/>
<path d="M732.915 242.572H661.238" stroke="#29563F" stroke-width="2"/>
<path d="M734.737 249.861L661.238 249.861" stroke="#29563F" stroke-width="2"/>
<path d="M726.841 216.453L726.841 249.861" stroke="#29563F" stroke-width="2"/>
<path d="M718.337 216.453L718.337 249.861" stroke="#29563F" stroke-width="2"/>
<path d="M711.048 216.453L711.048 249.861" stroke="#29563F" stroke-width="2"/>
<path d="M702.544 216.453L702.544 249.861" stroke="#29563F" stroke-width="2"/>
<path d="M694.647 216.453L694.647 249.861" stroke="#29563F" stroke-width="2"/>
<path d="M686.751 216.453L686.751 249.861" stroke="#29563F" stroke-width="2"/>
<path d="M678.854 216.453L678.854 249.861" stroke="#29563F" stroke-width="2"/>
<path d="M670.35 216.453L670.35 249.861" stroke="#29563F" stroke-width="2"/>
<path d="M663.061 216.453L663.061 249.861" stroke="#29563F" stroke-width="2"/>
<path d="M654.557 216.453L654.557 236.498" stroke="#29563F" stroke-width="2"/>
<path d="M646.053 216.453L646.053 236.498" stroke="#29563F" stroke-width="2"/>
<path d="M638.764 216.453L638.764 236.498" stroke="#29563F" stroke-width="2"/>
<path d="M630.26 216.453L630.26 236.498" stroke="#29563F" stroke-width="2"/>
<path d="M622.363 216.453L622.363 236.498" stroke="#29563F" stroke-width="2"/>
<path d="M614.467 216.453L614.467 236.498" stroke="#29563F" stroke-width="2"/>
<path d="M731.7 208.461H606.879L585.31 200.052V235.89" stroke="#29563F" stroke-width="4"/>
<path d="M606.57 208.556V235.89" stroke="#29563F" stroke-width="4"/>
<path d="M567.694 31.7942L548.864 66.4176" stroke="#29563F" stroke-width="4"/>
<path d="M557.368 31.7942L539.753 66.4176" stroke="#29563F" stroke-width="4"/>
<path d="M548.257 31.7942L530.641 65.2028" stroke="#29563F" stroke-width="4"/>
<path d="M537.93 31.1868L521.529 65.2028" stroke="#29563F" stroke-width="4"/>
<path d="M528.212 31.1868L513.634 65.2028" stroke="#29563F" stroke-width="4"/>
<path d="M518.519 31.1868L503.94 65.2028" stroke="#29563F" stroke-width="4"/>
<path d="M508.8 31.1868L495.436 66.4176" stroke="#29563F" stroke-width="4"/>
<path d="M499.081 30.5793L486.932 65.2028" stroke="#29563F" stroke-width="4"/>
<path d="M488.147 31.1868L477.214 67.0251" stroke="#29563F" stroke-width="4"/>
<path d="M477.821 31.1868L468.102 65.2028" stroke="#29563F" stroke-width="4"/>
<path d="M468.715 31.7942L460.211 66.4176" stroke="#29563F" stroke-width="4"/>
<path d="M458.389 31.1868L451.1 66.4176" stroke="#29563F" stroke-width="4"/>
<path d="M448.67 31.1868L442.596 59.1285" stroke="#29563F" stroke-width="4"/>
<path d="M438.344 31.1868L434.699 57.3062" stroke="#29563F" stroke-width="4"/>
<path d="M429.232 29.9719L426.195 57.3062" stroke="#29563F" stroke-width="4"/>
<path d="M419.514 30.5793L417.084 57.3062" stroke="#29563F" stroke-width="4"/>
<path d="M409.188 29.9719L407.973 56.6988" stroke="#29563F" stroke-width="4"/>
<path d="M408.033 57.9137L407.365 268.084H439.103L440.773 236.24" stroke="#29563F" stroke-width="8"/>
<path d="M661.238 236.498V243.18L440.742 241.509" stroke="#29563F" stroke-width="4"/>
<path d="M406.757 235.283V241.965L186.26 240.294" stroke="#29563F" stroke-width="8"/>
<path d="M661.783 243.179L662.453 269.906L438.312 268.553" stroke="#29563F" stroke-width="8"/>
<path d="M407.303 241.965L407.973 268.691L183.831 267.338" stroke="#29563F" stroke-width="8"/>
<path d="M794.123 61.7194L835.99 34.5361V23.1258L838 21.1122V15.4071L4.00003 5.6748V12.0511L5.33979 25.8106L42.853 54.0006H91.7542L96.4434 58.699L407.937 62.7261V57.3566H442.101V66.4177" stroke="#29563F" stroke-width="8"/>
<path d="M836.178 34.8314L5.82234 25.72" stroke="#29563F" stroke-width="8"/>
<path d="M826.459 34.8314L788.798 62.1657" stroke="#29563F" stroke-width="4"/>
<path d="M815.525 34.8314L779.08 62.1657" stroke="#29563F" stroke-width="4"/>
<path d="M805.807 34.8314L768.753 62.1657" stroke="#29563F" stroke-width="4"/>
<path d="M795.48 34.8314L759.035 62.1657" stroke="#29563F" stroke-width="4"/>
<path d="M785.762 34.8314L748.101 62.1657" stroke="#29563F" stroke-width="4"/>
<path d="M775.436 34.224L734.738 67.0252" stroke="#29563F" stroke-width="4"/>
<path d="M766.931 34.224L725.625 67.0252" stroke="#29563F" stroke-width="4"/>
<path d="M757.819 33.6165L716.514 66.4176" stroke="#29563F" stroke-width="4"/>
<path d="M749.923 33.6165L708.01 66.4176" stroke="#29563F" stroke-width="4"/>
<path d="M736.56 34.224L698.899 65.2029" stroke="#29563F" stroke-width="4"/>
<path d="M726.233 34.224L689.788 66.4177" stroke="#29563F" stroke-width="4"/>
<path d="M716.515 33.6165L680.676 67.025" stroke="#29563F" stroke-width="4"/>
<path d="M706.188 33.6165L673.386 66.4176" stroke="#29563F" stroke-width="4"/>
<path d="M696.469 33.6165L663.668 65.2028" stroke="#29563F" stroke-width="4"/>
<path d="M687.357 33.6165L655.164 66.4176" stroke="#29563F" stroke-width="4"/>
<path d="M675.816 33.6165L645.445 66.4176" stroke="#29563F" stroke-width="4"/>
<path d="M667.312 33.6165L637.548 65.2028" stroke="#29563F" stroke-width="4"/>
<path d="M656.379 33.009L627.83 66.4176" stroke="#29563F" stroke-width="4"/>
<path d="M646.66 33.009L619.326 65.2028" stroke="#29563F" stroke-width="4"/>
<path d="M635.119 33.6165L610.822 66.4176" stroke="#29563F" stroke-width="4"/>
<path d="M626.008 33.009L602.318 67.0251" stroke="#29563F" stroke-width="4"/>
<path d="M616.289 33.6165L593.207 65.2028" stroke="#29563F" stroke-width="4"/>
<path d="M606.57 33.009L584.095 67.0251" stroke="#29563F" stroke-width="4"/>
<path d="M596.243 33.009L575.591 67.0251" stroke="#29563F" stroke-width="4"/>
<path d="M587.132 33.009L567.087 66.4176" stroke="#29563F" stroke-width="4"/>
<path d="M576.198 33.009L557.975 67.0251" stroke="#29563F" stroke-width="4"/>
<path d="M794.266 62.1656L784.922 271.121H740.204L748.881 62.1656H794.266Z" stroke="#29563F" stroke-width="8"/>
<path d="M749.315 62.1656L740.939 67.1806M740.939 67.1806H666.225M740.939 67.1806L739.599 120.005L729.213 119.97M513 240.675L440 240.675L441.905 119.002M513 240.675L516.126 67.1806M513 240.675L589 240.675M516.126 67.1806H442.417L441.905 119.002M516.126 67.1806H591.511M589 240.675L591.511 67.1806M589 240.675L661.5 240.675L666.225 67.1806M591.511 67.1806H666.225M441.905 119.002L729.213 119.97M729.213 119.97L735.244 271.121H740.939" stroke="#29563F" stroke-width="8"/>
<path d="M726.233 67.0251L723.804 118.657" stroke="#29563F" stroke-width="4"/>
<path d="M712.263 67.0251L711.048 118.657" stroke="#29563F" stroke-width="4"/>
<path d="M698.898 67.0251L697.684 118.657" stroke="#29563F" stroke-width="4"/>
<path d="M685.535 67.0251L683.713 118.657" stroke="#29563F" stroke-width="4"/>
<path d="M672.172 67.0251L670.35 118.657" stroke="#29563F" stroke-width="4"/>
<path d="M649.697 67.0251L647.268 118.657" stroke="#29563F" stroke-width="4"/>
<path d="M581.697 67.0251L579.268 118.657" stroke="#29563F" stroke-width="4"/>
<path d="M636.941 67.0251L635.119 118.657" stroke="#29563F" stroke-width="4"/>
<path d="M568.941 67.0251L567.119 118.657" stroke="#29563F" stroke-width="4"/>
<path d="M624.186 67.0251L622.363 118.657" stroke="#29563F" stroke-width="4"/>
<path d="M556.186 67.0251L554.363 118.657" stroke="#29563F" stroke-width="4"/>
<path d="M611.429 67.0251L609.606 118.657" stroke="#29563F" stroke-width="4"/>
<path d="M543.429 67.0251L541.606 118.657" stroke="#29563F" stroke-width="4"/>
<path d="M598.065 67.0251L596.851 118.657" stroke="#29563F" stroke-width="4"/>
<path d="M530.065 67.0251L528.851 118.657" stroke="#29563F" stroke-width="4"/>
<path d="M499.081 67.0251L497.259 118.657" stroke="#29563F" stroke-width="4"/>
<path d="M485.718 67.0251L484.503 118.657" stroke="#29563F" stroke-width="4"/>
<path d="M473.569 67.0251L471.747 118.657" stroke="#29563F" stroke-width="4"/>
<path d="M460.818 67.0251L458.996 118.657" stroke="#29563F" stroke-width="4"/>
<path d="M448.062 67.0251L446.24 118.657" stroke="#29563F" stroke-width="4"/>
<path d="M842.207 5.96985L231.02 -3.19126e-05L230.854 16.9087L842.042 22.8785L842.207 5.96985Z" fill="#29563F"/>
<rect width="125.738" height="7.89658" transform="matrix(-1 0 0 1 732.308 208.556)" fill="#29563F"/>
<rect width="24.8763" height="7.04281" transform="matrix(-0.934609 -0.355676 -0.355676 0.934609 609.271 209.203)" fill="#29563F"/>
<path d="M698 121.5V142.5" stroke="#29563F" stroke-width="2"/>
<path d="M628.5 121.5V142.5" stroke="#29563F" stroke-width="2"/>
<path d="M497 122V151" stroke="#29563F" stroke-width="2"/>
<path d="M467 122V142" stroke="#29563F" stroke-width="2"/>
<path d="M690.286 155C688.674 155 687.868 155 687.337 154.604C686.936 154.306 686.625 153.786 686.553 153.291C686.456 152.636 686.81 151.978 687.518 150.664C691.891 142.543 699.488 135.605 708.15 150.47C708.968 151.874 709.377 152.576 709.295 153.245C709.231 153.756 708.931 154.28 708.521 154.592C707.984 155 707.127 155 705.413 155H690.286Z" fill="#29563F" stroke="#29563F" stroke-width="2"/>
<path d="M620.786 155C619.174 155 618.368 155 617.837 154.604C617.436 154.306 617.125 153.786 617.053 153.291C616.956 152.636 617.31 151.978 618.018 150.664C622.391 142.543 629.988 135.605 638.65 150.47C639.468 151.874 639.877 152.576 639.795 153.245C639.731 153.756 639.431 154.28 639.021 154.592C638.484 155 637.627 155 635.913 155H620.786Z" fill="#29563F" stroke="#29563F" stroke-width="2"/>
<path d="M484.84 168C483.206 168 482.389 168 481.861 167.611C481.455 167.313 481.151 166.814 481.071 166.318C480.966 165.67 481.319 164.983 482.026 163.607C488.133 151.712 499.563 140.214 512.613 163.4C513.439 164.868 513.852 165.602 513.764 166.266C513.695 166.779 513.399 167.285 512.985 167.597C512.451 168 511.582 168 509.846 168H484.84Z" fill="#29563F" stroke="#29563F" stroke-width="2"/>
<path d="M459.82 154C458.2 154 457.39 154 456.857 153.6C456.455 153.299 456.145 152.773 456.076 152.276C455.984 151.616 456.346 150.961 457.07 149.651C461.441 141.744 468.987 135.063 477.589 149.453C478.427 150.855 478.846 151.556 478.768 152.23C478.709 152.743 478.408 153.273 477.998 153.587C477.46 154 476.597 154 474.871 154H459.82Z" fill="#29563F" stroke="#29563F" stroke-width="2"/>
</svg>
