<svg width="1132" height="585" viewBox="0 0 1132 585" fill="none" xmlns="http://www.w3.org/2000/svg">
<path d="M576.747 426.933H896.757" stroke="#29563F" stroke-width="2"/>
<path d="M899.413 476.064H623.222" stroke="#29563F" stroke-width="2"/>
<path d="M622.997 476.169L575.711 459.119" stroke="#29563F" stroke-width="2"/>
<path d="M611.271 506.604L611.271 453.49" stroke="#29563F" stroke-width="2"/>
<path d="M600.648 506.604L600.648 448.179" stroke="#29563F" stroke-width="2"/>
<path d="M590.025 505.276L590.025 445.523" stroke="#29563F" stroke-width="2"/>
<path d="M622.997 491.055L575.711 474.006" stroke="#29563F" stroke-width="2"/>
<path d="M622.997 505.941L575.711 488.892" stroke="#29563F" stroke-width="2"/>
<path d="M899.413 490.67H623.222" stroke="#29563F" stroke-width="2"/>
<path d="M899.413 505.276H623.222" stroke="#29563F" stroke-width="2"/>
<path d="M899.413 519.883H742.728" stroke="#29563F" stroke-width="2"/>
<path d="M903.396 535.816L742.727 535.816" stroke="#29563F" stroke-width="2"/>
<path d="M886.134 462.785L886.134 535.817" stroke="#29563F" stroke-width="2"/>
<path d="M867.544 462.785L867.544 535.817" stroke="#29563F" stroke-width="2"/>
<path d="M851.61 462.785L851.61 535.817" stroke="#29563F" stroke-width="2"/>
<path d="M833.021 462.785L833.021 535.817" stroke="#29563F" stroke-width="2"/>
<path d="M815.758 462.785L815.758 535.817" stroke="#29563F" stroke-width="2"/>
<path d="M798.497 462.785L798.497 535.817" stroke="#29563F" stroke-width="2"/>
<path d="M781.234 462.785L781.234 535.817" stroke="#29563F" stroke-width="2"/>
<path d="M762.645 462.785L762.645 535.817" stroke="#29563F" stroke-width="2"/>
<path d="M746.71 462.785L746.71 535.817" stroke="#29563F" stroke-width="2"/>
<path d="M728.121 462.785L728.121 506.604" stroke="#29563F" stroke-width="2"/>
<path d="M709.531 462.785L709.531 506.604" stroke="#29563F" stroke-width="2"/>
<path d="M693.597 462.785L693.597 506.604" stroke="#29563F" stroke-width="2"/>
<path d="M675.007 462.785L675.007 506.604" stroke="#29563F" stroke-width="2"/>
<path d="M657.745 462.785L657.745 506.604" stroke="#29563F" stroke-width="2"/>
<path d="M640.483 462.785L640.483 506.604" stroke="#29563F" stroke-width="2"/>
<path d="M896.757 445.316H623.897L576.747 426.933V505.276" stroke="#29563F" stroke-width="4"/>
<path d="M623.222 445.523V505.276" stroke="#29563F" stroke-width="4"/>
<path d="M538.239 59.1207L497.076 134.808" stroke="#29563F" stroke-width="4"/>
<path d="M515.666 59.1207L477.158 134.808" stroke="#29563F" stroke-width="4"/>
<path d="M495.748 59.1207L457.241 132.152" stroke="#29563F" stroke-width="4"/>
<path d="M473.175 57.7929L437.323 132.152" stroke="#29563F" stroke-width="4"/>
<path d="M451.93 57.7929L420.061 132.152" stroke="#29563F" stroke-width="4"/>
<path d="M430.741 57.7929L398.873 132.152" stroke="#29563F" stroke-width="4"/>
<path d="M409.496 57.7929L380.284 134.808" stroke="#29563F" stroke-width="4"/>
<path d="M388.25 56.4651L361.694 132.152" stroke="#29563F" stroke-width="4"/>
<path d="M364.35 57.7929L340.448 136.136" stroke="#29563F" stroke-width="4"/>
<path d="M341.776 57.7929L320.531 132.152" stroke="#29563F" stroke-width="4"/>
<path d="M321.858 59.1207L303.269 134.808" stroke="#29563F" stroke-width="4"/>
<path d="M299.285 57.7929L283.351 134.808" stroke="#29563F" stroke-width="4"/>
<path d="M278.04 57.7929L264.761 118.874" stroke="#29563F" stroke-width="4"/>
<path d="M255.466 57.7929L247.499 114.89" stroke="#29563F" stroke-width="4"/>
<path d="M235.549 55.1372L228.91 114.89" stroke="#29563F" stroke-width="4"/>
<path d="M214.303 56.4651L208.991 114.89" stroke="#29563F" stroke-width="4"/>
<path d="M191.73 55.1372L189.074 113.562" stroke="#29563F" stroke-width="4"/>
<path d="M189.207 116.218L187.746 575.652H257.126L260.778 506.041" stroke="#29563F" stroke-width="4"/>
<path d="M742.727 506.604V521.21L260.72 517.559" stroke="#29563F" stroke-width="4"/>
<path d="M743.918 521.21L745.383 579.635L255.409 576.677" stroke="#29563F" stroke-width="4"/>
<path d="M1033.21 124.537L1124.74 65.1144V40.1715L1129.13 35.7698V23.2983L-694 2.0235V15.9622L-691.071 46.0404L-609.067 107.664H-502.169L-491.918 117.935L189.01 126.738V115H263.692V134.808" stroke="#29563F" stroke-width="4"/>
<path d="M1125.15 65.76L-114 51.5235" stroke="#29563F" stroke-width="4"/>
<path d="M1103.9 65.76L1021.57 125.513" stroke="#29563F" stroke-width="4"/>
<path d="M1080 65.76L1000.33 125.513" stroke="#29563F" stroke-width="4"/>
<path d="M1058.75 65.76L977.756 125.513" stroke="#29563F" stroke-width="4"/>
<path d="M1036.18 65.76L956.51 125.513" stroke="#29563F" stroke-width="4"/>
<path d="M1014.94 65.76L932.609 125.513" stroke="#29563F" stroke-width="4"/>
<path d="M992.362 64.4322L903.397 136.136" stroke="#29563F" stroke-width="4"/>
<path d="M973.772 64.4322L883.479 136.136" stroke="#29563F" stroke-width="4"/>
<path d="M953.854 63.1043L863.561 134.808" stroke="#29563F" stroke-width="4"/>
<path d="M936.592 63.1043L844.971 134.808" stroke="#29563F" stroke-width="4"/>
<path d="M907.38 64.4322L825.054 132.152" stroke="#29563F" stroke-width="4"/>
<path d="M884.806 64.4322L805.136 134.808" stroke="#29563F" stroke-width="4"/>
<path d="M863.561 63.1043L785.218 136.136" stroke="#29563F" stroke-width="4"/>
<path d="M840.987 63.1043L769.284 134.808" stroke="#29563F" stroke-width="4"/>
<path d="M819.742 63.1043L748.038 132.152" stroke="#29563F" stroke-width="4"/>
<path d="M799.824 63.1043L729.449 134.808" stroke="#29563F" stroke-width="4"/>
<path d="M774.595 63.1043L708.203 134.808" stroke="#29563F" stroke-width="4"/>
<path d="M756.005 63.1043L690.941 132.152" stroke="#29563F" stroke-width="4"/>
<path d="M732.104 61.7764L669.696 134.808" stroke="#29563F" stroke-width="4"/>
<path d="M710.859 61.7764L651.106 132.152" stroke="#29563F" stroke-width="4"/>
<path d="M685.63 63.1043L632.516 134.808" stroke="#29563F" stroke-width="4"/>
<path d="M665.712 61.7764L613.927 136.136" stroke="#29563F" stroke-width="4"/>
<path d="M644.467 63.1043L594.009 132.152" stroke="#29563F" stroke-width="4"/>
<path d="M623.222 61.7764L574.091 136.136" stroke="#29563F" stroke-width="4"/>
<path d="M600.648 61.7764L555.501 136.136" stroke="#29563F" stroke-width="4"/>
<path d="M580.73 61.7764L536.912 134.808" stroke="#29563F" stroke-width="4"/>
<path d="M556.829 61.7764L516.994 136.136" stroke="#29563F" stroke-width="4"/>
<path d="M1033.52 125.513L1013.1 582.291H915.347L934.314 125.513H1033.52Z" stroke="#29563F" stroke-width="4"/>
<path d="M935.265 125.513L916.955 136.476M916.955 136.476H753.628M916.955 136.476L914.025 251.949L891.32 251.873M419.652 507.014H260.72L263.263 249.757M419.652 507.014L425.511 136.476M419.652 507.014H584.443M425.511 136.476H264.382L263.263 249.757M425.511 136.476H590.302M584.443 507.014L590.302 136.476M584.443 507.014H744.107L753.628 136.476M590.302 136.476H753.628M263.263 249.757L891.32 251.873M891.32 251.873L904.504 582.291H916.955" stroke="#29563F" stroke-width="4"/>
<path d="M884.806 136.136L879.495 249.002" stroke="#29563F" stroke-width="4"/>
<path d="M854.267 136.136L851.611 249.002" stroke="#29563F" stroke-width="4"/>
<path d="M825.053 136.136L822.398 249.002" stroke="#29563F" stroke-width="4"/>
<path d="M795.841 136.136L791.857 249.002" stroke="#29563F" stroke-width="4"/>
<path d="M766.628 136.136L762.645 249.002" stroke="#29563F" stroke-width="4"/>
<path d="M717.498 136.136L712.187 249.002" stroke="#29563F" stroke-width="4"/>
<path d="M689.613 136.136L685.63 249.002" stroke="#29563F" stroke-width="4"/>
<path d="M661.729 136.136L657.745 249.002" stroke="#29563F" stroke-width="4"/>
<path d="M633.844 136.136L629.86 249.002" stroke="#29563F" stroke-width="4"/>
<path d="M604.631 136.136L601.976 249.002" stroke="#29563F" stroke-width="4"/>
<path d="M388.25 136.136L384.267 249.002" stroke="#29563F" stroke-width="4"/>
<path d="M359.038 136.136L356.382 249.002" stroke="#29563F" stroke-width="4"/>
<path d="M332.481 136.136L328.498 249.002" stroke="#29563F" stroke-width="4"/>
<path d="M304.597 136.136L300.613 249.002" stroke="#29563F" stroke-width="4"/>
<path d="M276.712 136.136L272.728 249.002" stroke="#29563F" stroke-width="4"/>
<path d="M1127.6 22.6154L-197.93 9.66802L-198.096 26.581L1127.44 39.5284L1127.6 22.6154Z" fill="#29563F"/>
<rect width="274.864" height="17.262" transform="matrix(-1 0 0 1 898.085 445.523)" fill="#29563F"/>
<rect width="54.3798" height="15.3956" transform="matrix(-0.934609 -0.355676 -0.355676 0.934609 629.126 446.937)" fill="#29563F"/>
</svg>
