<svg width="63" height="63" viewBox="0 0 63 63" fill="none" xmlns="http://www.w3.org/2000/svg">
<path d="M42 5.25C42.6429 5.25008 43.2635 5.48614 43.744 5.91338C44.2244 6.34062 44.5314 6.92934 44.6066 7.56787L44.625 7.875V10.5H47.25C49.2587 10.4999 51.1915 11.2674 52.6529 12.6454C54.1144 14.0234 54.994 15.9078 55.1119 17.913L55.125 18.375V49.875C55.1251 51.8837 54.3576 53.8165 52.9796 55.2779C51.6016 56.7394 49.7172 57.619 47.712 57.7369L47.25 57.75H15.75C13.7413 57.7501 11.8085 56.9826 10.3471 55.6046C8.88561 54.2266 8.00597 52.3422 7.88813 50.337L7.875 49.875V18.375C7.87489 16.3663 8.64235 14.4335 10.0204 12.9721C11.3984 11.5106 13.2828 10.631 15.288 10.5131L15.75 10.5H18.375V7.875C18.3757 7.20594 18.6319 6.56242 19.0912 6.07591C19.5505 5.5894 20.1783 5.29663 20.8462 5.25742C21.5141 5.21821 22.1717 5.43552 22.6848 5.86495C23.1979 6.29437 23.5276 6.9035 23.6066 7.56787L23.625 7.875V10.5H39.375V7.875C39.375 7.17881 39.6516 6.51113 40.1438 6.01884C40.6361 5.52656 41.3038 5.25 42 5.25ZM49.875 23.625H13.125V48.8906C13.125 50.7412 14.1382 52.2664 15.4429 52.4764L15.75 52.5H47.25C48.5966 52.5 49.707 51.1087 49.8566 49.3106L49.875 48.8906V23.625Z" fill="#27341F"/>
<path d="M31.5 31.5C32.143 31.5001 32.7635 31.7361 33.244 32.1634C33.7245 32.5906 34.0314 33.1793 34.1066 33.8179L34.125 34.125V42C34.1243 42.6691 33.8681 43.3126 33.4088 43.7991C32.9495 44.2856 32.3218 44.5784 31.6539 44.6176C30.986 44.6568 30.3283 44.4395 29.8152 44.0101C29.3021 43.5806 28.9724 42.9715 28.8934 42.3071L28.875 42V36.75C28.206 36.7493 27.5624 36.4931 27.0759 36.0338C26.5894 35.5745 26.2967 34.9467 26.2574 34.2788C26.2182 33.6109 26.4355 32.9533 26.865 32.4402C27.2944 31.9271 27.9035 31.5974 28.5679 31.5184L28.875 31.5H31.5Z" fill="#27341F"/>
</svg>
