<svg width="236" height="85" viewBox="0 0 236 85" fill="none" xmlns="http://www.w3.org/2000/svg">
<path fill-rule="evenodd" clip-rule="evenodd" d="M76.3387 0.115136C74.5712 0.336714 70.9402 1.20688 69.3314 1.79449C62.0795 4.4425 56.3511 10.3359 52.7777 18.8248C52.1413 20.3365 51.5197 21.5731 51.3965 21.5731C51.273 21.5731 50.4914 21.3684 49.659 21.1181C43.8524 19.3726 36.7071 20.561 31.4349 24.1492C27.9842 26.4979 24.7279 30.7743 23.263 34.8814L22.7763 36.2464L20.5465 36.1693C15.114 35.9814 10.2841 37.819 6.36124 41.5663C2.12459 45.6134 0.0176321 50.5202 0.000125329 56.3794C-0.0171541 62.1439 1.75195 66.6268 5.55411 70.4544C9.29534 74.2208 13.7596 76.2491 18.93 76.5323C22.1894 76.7107 22.317 76.7509 24.273 78.223C27.6286 80.7482 32.2104 82.7269 36.4368 83.4763C38.9885 83.9285 45.4096 83.8776 47.8462 83.3857C52.0008 82.547 56.0053 80.8729 59.4153 78.5497L61.2587 77.2937L62.7832 78.2986C66.0738 80.4677 69.5274 81.9168 73.5151 82.8018C76.6752 83.5029 82.4593 83.5539 85.8879 82.9107C90.2366 82.095 94.5235 80.3494 97.815 78.054C98.7467 77.4045 99.3788 77.1017 99.5436 77.2262C99.6866 77.3342 100.636 78.0947 101.654 78.9164C106.404 82.7515 111.705 84.6795 118.287 84.967C122.087 85.1331 125.573 84.6724 128.896 83.5648C131.776 82.6045 133.683 81.6491 136.589 79.7086L138.863 78.1905L141.367 78.3422C146.837 78.6739 152.108 76.7689 156.071 73.0285C158.784 70.4683 160.333 67.9634 161.4 64.4115C161.913 62.7042 162.002 61.9876 162 59.5643C161.995 52.6686 159.103 47.6629 153.254 44.4288L151.595 43.5116L151.006 41.6989C149.449 36.9107 146.871 33.8415 142.601 31.6897C140.528 30.6451 138.815 30.1844 135.933 29.8964L133.457 29.6491L132.736 27.3742C130.1 19.0605 123.848 13.1557 115.217 10.8287C112.553 10.1102 106.969 10.1109 104.116 10.83C103.012 11.1082 101.896 11.336 101.637 11.336C101.333 11.336 100.189 10.333 98.4148 8.51143C93.7573 3.72817 89.0368 1.1657 83.2732 0.29167C81.2881 -0.00952952 77.9993 -0.0932469 76.3387 0.115136ZM82.9322 7.58803C89.2983 8.90317 93.8194 12.4245 97.0217 18.562C98.1756 20.7735 98.3568 20.8056 101.427 19.3382C104.772 17.7396 106.218 17.3916 109.533 17.3877C112.832 17.3836 114.364 17.7419 117.377 19.2222C119.211 20.1229 119.846 20.5954 121.584 22.3514C122.709 23.4891 123.974 25.0067 124.395 25.7237C125.995 28.4502 126.904 32.1197 126.92 35.9113C126.931 38.6931 127.663 39.1892 130.138 38.095C133.039 36.8126 136.688 36.6825 139.041 37.7774C140.892 38.6387 142.919 40.6454 143.801 42.4888C144.43 43.803 144.527 44.2728 144.617 46.423C144.687 48.1074 144.815 48.9448 145.03 49.1231C145.201 49.2653 146.134 49.531 147.104 49.7137C151.106 50.4678 153.729 52.955 154.78 56.9921C156.629 64.0951 150.362 71.3726 142.38 71.3905C141.563 71.3923 140.335 71.2365 139.652 71.0441C138.968 70.8518 137.982 70.6346 137.462 70.5618C136.547 70.4337 136.465 70.4769 134.961 71.8876C134.106 72.6895 132.913 73.6848 132.309 74.0991C130.607 75.2672 127.581 76.599 125.155 77.2473C123.26 77.7537 122.466 77.8386 119.537 77.8481C117.056 77.8563 115.709 77.7544 114.595 77.4744C109.152 76.1055 104.877 73.1879 101.963 68.8513C101.317 67.8908 100.586 67.0407 100.338 66.9619C99.6757 66.7515 99.0082 67.1942 97.4833 68.8547C95.8997 70.5791 93.0932 72.728 91.1263 73.7223C87.2143 75.6995 81.9532 76.6577 77.5892 76.1877C72.1971 75.6071 67.6208 73.5631 63.2027 69.7619C61.0919 67.9458 60.8013 67.967 58.5172 70.1043C55.2825 73.1311 51.9735 74.9642 47.8901 75.9916C45.1077 76.6913 38.5349 76.7418 36.0958 76.0819C32.3636 75.0723 28.8539 73.1286 26.2506 70.6296L24.7952 69.2328L23.2837 69.3386C20.4356 69.5378 17.9237 69.4184 16.5427 69.0185C10.0661 67.1421 6.22869 61.2496 7.13904 54.5784C7.74087 50.168 10.1677 46.6332 13.923 44.697C16.1048 43.5723 17.3478 43.2971 20.1805 43.3109C22.392 43.3221 22.8524 43.3965 24.1593 43.955C26.3943 44.91 27.0115 45.0801 27.655 44.9186C28.5119 44.7034 28.8798 43.7755 29.149 41.15C29.5587 37.1561 30.6893 34.6098 33.2235 31.9736C34.9928 30.133 36.5866 29.0328 38.5619 28.2889C45.3762 25.7226 53.1638 28.4946 56.2368 34.58C56.6037 35.3068 57.0914 35.9354 57.3522 36.0184C57.6144 36.1015 58.432 35.9472 59.2334 35.6633C60.013 35.3871 61.4183 35.1121 62.3562 35.0523C63.7884 34.9608 64.3381 35.0386 65.7839 35.538C68.1105 36.3415 69.074 36.3194 70.1426 35.4381C71.7953 34.075 71.7574 31.8899 70.051 30.1826C68.3328 28.4634 65.1616 27.5161 62.0834 27.8023L60.5164 27.9479L59.3898 26.7725C58.7703 26.1259 58.2635 25.4707 58.2635 25.3167C58.2635 25.1625 58.5234 24.1395 58.8408 23.043C61.0341 15.4704 65.9115 10.3714 73.2764 7.95248C76.2994 6.95948 79.3349 6.84481 82.9322 7.58803Z" fill="#29563F"/>
<path fill-rule="evenodd" clip-rule="evenodd" d="M192.641 0.0582453C191.746 0.170337 189.908 0.610537 189.094 0.9078C185.423 2.24738 182.523 5.22876 180.715 9.52313C180.393 10.2879 180.078 10.9135 180.016 10.9135C179.953 10.9135 179.557 10.8099 179.136 10.6833C176.197 9.80025 172.58 10.4015 169.911 12.2167C168.165 13.4048 166.517 15.5682 165.775 17.6459L165.529 18.3364L164.4 18.2974C161.65 18.2023 159.206 19.132 157.22 21.0277C155.075 23.075 154.009 25.5573 154 28.5214C153.991 31.4375 154.887 33.7053 156.811 35.6416C158.705 37.547 160.965 38.5731 163.582 38.7163C165.232 38.8066 165.296 38.8269 166.286 39.5716C167.985 40.8491 170.304 41.8501 172.443 42.2292C173.735 42.458 176.985 42.4322 178.218 42.1834C180.321 41.7591 182.348 40.9122 184.074 39.7369L185.008 39.1015L185.779 39.6099C187.445 40.7072 189.193 41.4403 191.211 41.888C192.811 42.2426 195.739 42.2684 197.474 41.9431C199.675 41.5304 201.845 40.6473 203.511 39.4861C203.983 39.1576 204.303 39.0044 204.386 39.0674C204.459 39.122 204.939 39.5067 205.455 39.9224C207.859 41.8625 210.542 42.8379 213.874 42.9833C215.797 43.0673 217.562 42.8343 219.243 42.2739C220.702 41.7882 221.667 41.3048 223.138 40.3232L224.289 39.5552L225.556 39.632C228.325 39.7998 230.993 38.836 232.999 36.9438C234.372 35.6487 235.156 34.3815 235.696 32.5847C235.956 31.7209 236.001 31.3584 236 30.1325C235.997 26.6441 234.533 24.1118 231.573 22.4758L230.733 22.0117L230.435 21.0947C229.647 18.6725 228.342 17.1198 226.181 16.0313C225.131 15.5028 224.264 15.2697 222.805 15.124L221.552 14.999L221.187 13.8481C219.853 9.64236 216.689 6.65523 212.32 5.47803C210.971 5.11459 208.145 5.11494 206.701 5.47872C206.142 5.61947 205.577 5.73467 205.446 5.73467C205.292 5.73467 204.713 5.22726 203.815 4.30578C201.457 1.88602 199.068 0.589705 196.151 0.147551C195.146 -0.00482082 193.481 -0.047172 192.641 0.0582453ZM195.978 3.83865C199.2 4.50395 201.489 6.28535 203.11 9.39021C203.694 10.5089 203.786 10.5252 205.34 9.78287C207.033 8.97418 207.765 8.7981 209.443 8.79614C211.113 8.79407 211.888 8.97533 213.413 9.72418C214.342 10.1798 214.663 10.4188 215.542 11.3072C216.112 11.8827 216.752 12.6504 216.965 13.0132C217.775 14.3925 218.235 16.2488 218.243 18.1669C218.249 19.5741 218.619 19.8251 219.872 19.2716C221.341 18.6228 223.188 18.557 224.379 19.1109C225.316 19.5466 226.342 20.5618 226.788 21.4943C227.106 22.1592 227.156 22.3968 227.201 23.4846C227.237 24.3367 227.302 24.7603 227.41 24.8505C227.497 24.9225 227.969 25.0569 228.46 25.1493C230.486 25.5308 231.814 26.789 232.345 28.8313C233.281 32.4246 230.109 36.1061 226.069 36.1152C225.655 36.1161 225.034 36.0373 224.688 35.9399C224.342 35.8427 223.843 35.7328 223.58 35.696C223.116 35.6312 223.075 35.653 222.314 36.3667C221.881 36.7723 221.277 37.2758 220.971 37.4854C220.11 38.0764 218.578 38.7501 217.35 39.0781C216.391 39.3342 215.989 39.3772 214.507 39.382C213.251 39.3861 212.569 39.3346 212.005 39.1929C209.25 38.5004 207.086 37.0245 205.611 34.8306C205.284 34.3447 204.914 33.9147 204.789 33.8749C204.453 33.7684 204.115 33.9924 203.343 34.8324C202.542 35.7047 201.121 36.7918 200.126 37.2948C198.146 38.295 195.482 38.7798 193.274 38.542C190.544 38.2483 188.228 37.2143 185.991 35.2913C184.923 34.3726 184.776 34.3833 183.62 35.4645C181.983 36.9957 180.308 37.9231 178.241 38.4428C176.832 38.7968 173.505 38.8223 172.271 38.4885C170.382 37.9777 168.605 36.9945 167.287 35.7303L166.551 35.0236L165.786 35.0772C164.344 35.178 163.072 35.1175 162.373 34.9152C159.095 33.966 157.153 30.9851 157.614 27.6102C157.918 25.3791 159.147 23.5909 161.047 22.6114C162.152 22.0425 162.781 21.9032 164.215 21.9102C165.334 21.9159 165.567 21.9535 166.229 22.236C167.36 22.7192 167.673 22.8052 167.998 22.7235C168.432 22.6147 168.618 22.1452 168.754 20.817C168.962 18.7966 169.534 17.5085 170.817 16.1749C171.712 15.2437 172.519 14.6872 173.519 14.3109C176.968 13.0126 180.91 14.4149 182.466 17.4934C182.651 17.8611 182.898 18.1791 183.03 18.2211C183.163 18.2631 183.577 18.1851 183.982 18.0414C184.377 17.9017 185.088 17.7626 185.563 17.7323C186.288 17.6861 186.566 17.7254 187.298 17.978C188.476 18.3845 188.963 18.3733 189.504 17.9275C190.341 17.2379 190.322 16.1325 189.458 15.2688C188.588 14.3991 186.983 13.9199 185.425 14.0647L184.632 14.1384L184.062 13.5437C183.748 13.2166 183.491 12.8852 183.491 12.8073C183.491 12.7293 183.623 12.2117 183.784 11.657C184.894 7.82621 187.363 5.24671 191.091 4.02302C192.621 3.52068 194.157 3.46267 195.978 3.83865Z" fill="#29563F" fill-opacity="0.55"/>
</svg>
