<svg width="65" height="65" viewBox="0 0 65 65" fill="none" xmlns="http://www.w3.org/2000/svg">
<path opacity="0.3" d="M33.0961 53.7605C32.6086 54.248 31.7419 54.3292 31.1732 53.7605C30.9194 53.5048 30.7771 53.1592 30.7771 52.799C30.7771 52.4388 30.9194 52.0932 31.1732 51.8375L40.3544 42.6563L36.5357 38.8375L27.3544 48.0188C26.8398 48.5605 25.9732 48.5334 25.4315 48.0188C25.1778 47.7631 25.0354 47.4175 25.0354 47.0573C25.0354 46.6971 25.1778 46.3515 25.4315 46.0959L34.6127 36.9146L30.794 33.0959L21.6127 42.2771C21.1252 42.7646 20.2586 42.8459 19.6898 42.2771C19.4419 42.0184 19.3034 41.674 19.3034 41.3157C19.3034 40.9573 19.4419 40.6129 19.6898 40.3542L28.8711 31.173L25.0252 27.3542L15.844 36.5355C15.3565 37.023 14.4898 37.1042 13.9211 36.5355C13.6731 36.2768 13.5347 35.9323 13.5347 35.574C13.5347 35.2157 13.6731 34.8712 13.9211 34.6125L25.7836 22.75L30.8482 27.7875C33.4211 30.3605 37.8627 30.3334 40.4357 27.7875C43.0898 25.1334 43.0898 20.8542 40.4357 18.2L35.3982 13.1625L36.1565 12.4042C38.269 10.2917 41.7086 10.2917 43.8211 12.4042L55.3044 23.8875C57.4169 26 57.4169 29.4396 55.3044 31.5521L33.0961 53.7605Z" fill="#27341F"/>
<path d="M33.096 53.7605C32.6085 54.248 31.7419 54.3293 31.1731 53.7605C30.9194 53.5048 30.777 53.1592 30.777 52.7991C30.777 52.4389 30.9194 52.0933 31.1731 51.8376L40.3544 42.6563L36.5356 38.8376L27.3544 48.0188C26.8398 48.5605 25.9731 48.5334 25.4314 48.0188C25.1777 47.7632 25.0354 47.4176 25.0354 47.0574C25.0354 46.6972 25.1777 46.3516 25.4314 46.0959L34.6127 36.9147L30.7939 33.0959L21.6127 42.2772C21.1252 42.7647 20.2585 42.8459 19.6898 42.2772C19.4418 42.0185 19.3034 41.674 19.3034 41.3157C19.3034 40.9574 19.4418 40.6129 19.6898 40.3543L28.871 31.173L25.0252 27.3543L15.8439 36.5355C15.3564 37.023 14.4898 37.1043 13.921 36.5355C13.6731 36.2768 13.5346 35.9324 13.5346 35.5741C13.5346 35.2157 13.6731 34.8713 13.921 34.6126L25.7835 22.7501L30.8481 27.7876C33.421 30.3605 37.8627 30.3334 40.4356 27.7876C43.0898 25.1334 43.0898 20.8543 40.4356 18.2001L35.3981 13.1626L36.1564 12.4043C38.2689 10.2918 41.7085 10.2918 43.821 12.4043L55.3044 23.8876C57.4169 26.0001 57.4169 29.4397 55.3044 31.5522L33.096 53.7605ZM59.1231 35.398C61.1507 33.3625 62.2892 30.6065 62.2892 27.7334C62.2892 24.8604 61.1507 22.1043 59.1231 20.0688L47.6398 8.58551C45.6043 6.55788 42.8483 5.41943 39.9752 5.41943C37.1021 5.41943 34.3461 6.55788 32.3106 8.58551L31.5523 9.34385L30.7939 8.58551C28.7584 6.55788 26.0024 5.41943 23.1294 5.41943C20.2563 5.41943 17.5003 6.55788 15.4648 8.58551L5.87728 18.173C4.04409 19.9984 2.92656 22.4208 2.72777 25.0001C2.52898 27.5795 3.26211 30.1446 4.79395 32.2293L8.72103 28.3022C8.19749 27.2799 8.01241 26.1178 8.19254 24.9835C8.37266 23.8492 8.90865 22.8015 9.72311 21.9918L19.3106 12.4043C21.4231 10.2918 24.8627 10.2918 26.9752 12.4043L36.6169 22.0459C37.1044 22.5334 37.1856 23.4001 36.6169 23.9688C36.0481 24.5376 35.1814 24.4563 34.6939 23.9688L25.7835 15.0855L10.0752 30.7668C7.42103 33.3938 7.42103 37.7001 10.0752 40.3543C11.1314 41.4105 12.4856 42.0605 13.921 42.2501C14.1116 43.7061 14.7778 45.0584 15.8161 46.0967C16.8544 47.135 18.2067 47.8012 19.6627 47.9918C19.8532 49.4478 20.5194 50.8 21.5578 51.8384C22.5961 52.8767 23.9484 53.5429 25.4044 53.7334C25.5939 55.1959 26.2439 56.523 27.3002 57.5793C28.5731 58.8522 30.2794 59.5563 32.0939 59.5563C33.9085 59.5563 35.6148 58.8522 36.8877 57.5793L59.1231 35.398Z" fill="#27341F"/>
</svg>
