<svg width="70" height="70" viewBox="0 0 70 70" fill="none" xmlns="http://www.w3.org/2000/svg">
<path d="M34.9998 35.0001C31.7915 35.0001 29.045 33.8577 26.7603 31.573C24.4755 29.2883 23.3332 26.5417 23.3332 23.3334C23.3332 20.1251 24.4755 17.3786 26.7603 15.0938C29.045 12.8091 31.7915 11.6667 34.9998 11.6667C38.2082 11.6667 40.9547 12.8091 43.2394 15.0938C45.5241 17.3786 46.6665 20.1251 46.6665 23.3334C46.6665 26.5417 45.5241 29.2883 43.2394 31.573C40.9547 33.8577 38.2082 35.0001 34.9998 35.0001ZM11.6665 52.5001V50.1668C11.6665 48.514 12.0923 46.9954 12.944 45.6109C13.7957 44.2265 14.9254 43.1687 16.3332 42.4376C19.3471 40.9306 22.4096 39.8009 25.5207 39.0484C28.6318 38.2959 31.7915 37.9187 34.9998 37.9167C38.2082 37.9148 41.3679 38.292 44.479 39.0484C47.5901 39.8048 50.6526 40.9345 53.6665 42.4376C55.0762 43.1667 56.2069 44.2245 57.0586 45.6109C57.9103 46.9973 58.3351 48.5159 58.3332 50.1668V52.5001C58.3332 54.1042 57.7625 55.478 56.6211 56.6213C55.4797 57.7647 54.1059 58.3354 52.4998 58.3334H17.4998C15.8957 58.3334 14.5229 57.7627 13.3815 56.6213C12.2401 55.4799 11.6684 54.1062 11.6665 52.5001Z" fill="#27341F"/>
</svg>
