<svg width="877" height="309" viewBox="0 0 877 309" fill="none" xmlns="http://www.w3.org/2000/svg">
<path fill-rule="evenodd" clip-rule="evenodd" d="M166.632 65.0974L166.653 129.609L160.468 136.795C143.6 156.393 133.018 180.499 137.967 188.052C140.789 192.36 142.575 191.338 141.918 185.791C141.451 181.847 141.921 179.628 144.569 173.266C147.436 166.379 156.65 151.384 162.829 143.549C167.297 137.885 167.693 139.148 167.375 158.03L167.08 175.475L178.332 175.78L189.584 176.085L189.582 146.867L189.58 117.65L194.83 113.719C207.367 104.332 227.993 93.7024 238.83 91.0434L241.58 90.3684V98.6584V106.947L236.242 114.016C233.305 117.904 225.828 128.285 219.625 137.085C196.288 170.193 188.738 181.794 175.373 205.085C166.497 220.554 147.756 258.492 143.265 270.085C139.609 279.522 133.282 298.218 132.22 302.721C131.483 305.849 133.422 307.895 136.665 307.412C138.493 307.14 139.652 304.912 143.599 294.085C146.206 286.935 149.237 279.06 150.336 276.585C175.221 220.533 202.368 177.076 229.527 149.817C235.693 143.628 241.04 138.751 241.409 138.979C241.778 139.208 242.078 147.537 242.076 157.49L242.071 175.585H253.326H264.58V147.763V119.942L271.927 115.738C281.34 110.352 296.54 104.143 297.626 105.239C298.086 105.704 301.017 111.035 304.139 117.085C317.388 142.758 318.517 144.585 321.132 144.585C322.479 144.585 323.58 144.993 323.58 145.492C323.58 145.99 320.772 150.153 317.34 154.742C310.046 164.495 293.075 181.872 283.08 189.821C260.399 207.86 231.848 219.549 210.397 219.577C202.97 219.587 202.709 220.542 206.532 233.714C212.308 253.617 217.961 266.707 225.908 278.585C230.285 285.126 242.301 296.555 248.932 300.484C259.444 306.712 264.573 307.996 279.08 308.033C292.608 308.068 297.57 307.152 303.464 303.531C308.096 300.685 306.263 299.231 300.566 301.233C293.357 303.766 280.031 304.152 271.433 302.075C261.534 299.685 256.429 297.269 247.836 290.909C237.73 283.428 230.569 274.327 223.58 260.085C217.93 248.571 211.054 228.398 211.968 226.017C212.208 225.39 215.907 224.559 220.187 224.172C246.818 221.758 290.621 197.391 315.094 171.377C326.125 159.651 331.444 151.596 342.033 130.587C347.162 120.411 357.96 99.4854 366.029 84.0854C374.098 68.6854 382.085 53.2734 383.777 49.8354C385.47 46.3984 387.13 43.5854 387.467 43.5854C387.804 43.5854 388.08 73.1684 388.08 109.324V175.064L390.986 175.574C393.606 176.035 393.729 176.22 392.236 177.457C390.728 178.707 389.84 183.585 391.12 183.585C391.417 183.585 393.372 181.785 395.465 179.585C398.97 175.901 399.689 175.585 404.565 175.585C408.115 175.585 410.225 175.09 410.97 174.083C412.608 171.868 424.487 170.651 444.83 170.616C461.958 170.586 462.58 170.656 462.58 172.597C462.58 173.703 458.358 181.691 453.198 190.347C448.037 199.003 440.12 213.285 435.604 222.085C431.088 230.885 426.873 238.39 426.237 238.764C425.601 239.137 421.03 240.638 416.08 242.099C405.965 245.086 388.974 253.205 379.791 259.442C376.435 261.721 373.492 263.585 373.25 263.585C372.693 263.585 369.58 254.137 369.58 252.445C369.58 251.749 370.899 249.809 372.511 248.133C376.462 244.024 377.213 240.589 374.81 237.621C372.56 234.842 369.208 235.281 364.992 238.907C362.783 240.807 362.201 242.337 361.695 247.581L361.08 253.947L347.767 259.764C329.885 267.578 320.361 270.585 313.493 270.585C304.944 270.585 300.799 266.389 303.191 260.156C303.527 259.28 308.046 256.527 313.233 254.037C325.451 248.173 332.58 241.626 332.58 236.269C332.58 232.063 329.841 228.647 326.33 228.474C318.508 228.09 313.757 230.466 306.345 238.472C299.621 245.734 295.374 254.02 294.795 261.005C294.422 265.505 294.716 266.594 297.06 269.378C301.132 274.218 309.008 276.243 317.883 274.731C326.098 273.333 338.531 268.636 352.266 261.743L362.452 256.631L364.016 262.012C365.928 268.59 365.943 269.275 364.2 270.285C361.625 271.778 354.058 279.064 349.846 284.106C336.322 300.3 344.958 311.085 363.766 301.49C371.967 297.306 375.96 288.092 374.654 276.367C373.666 267.507 373.662 267.513 386.058 259.838C396.134 253.6 405.265 249.254 416.905 245.157C424.646 242.433 426.831 242.337 424.838 244.811C422.112 248.195 413.609 276.923 413.589 282.815C413.56 291.52 419.861 297.389 427.797 296.048C437.026 294.489 471.857 274.256 488.131 261.001C491.222 258.483 493.95 256.622 494.193 256.865C494.437 257.109 494.173 258.524 493.608 260.011C492.149 263.849 492.335 269.211 494.042 272.511C499.295 282.67 516.969 268.365 523.911 248.335C524.257 247.337 525.527 246.585 526.867 246.585C531.985 246.585 540.625 243.043 551.818 236.355C560.361 231.251 564.814 229.2 568.179 228.821C571.981 228.179 574.105 228.135 577.878 228.589C580.081 228.596 585.393 232.42 586.042 234.467C587.136 237.913 584.708 244.378 575.988 261.233C571.364 270.173 567.58 278.34 567.58 279.381C567.58 282.656 571.329 285.095 576.199 284.989C581.631 284.87 600.931 275.661 613.58 267.152C618.255 264.007 622.444 261.356 622.888 261.26C623.333 261.164 624.304 262.805 625.045 264.907C625.787 267.008 627.223 269.364 628.237 270.14C636.418 276.409 653.641 273.225 680.443 260.489C691.524 255.224 692.729 254.846 692.064 256.85C690.602 261.258 690.367 268.818 691.619 271.157C695.812 278.992 708.257 274.538 731.394 256.921C736.657 252.914 741.088 249.759 741.24 249.911C741.392 250.063 740.417 253.436 739.074 257.405C732.423 277.063 733.398 291.641 741.78 297.889C745.989 301.026 754.637 300.77 761.732 297.299C767.244 294.602 770.368 292.039 769.364 291.036C769.089 290.761 765.988 291.896 762.472 293.56C754.1 297.52 747.949 297.672 744.504 294.003C742.377 291.737 742.092 290.538 742.178 284.219C742.294 275.775 743.471 270.119 748.286 254.891L751.825 243.698L766.286 229.391C782.183 213.664 789.191 205.627 801.432 189.085C805.909 183.035 810.248 177.372 811.076 176.501C811.903 175.63 812.58 174.669 812.58 174.366C812.58 174.063 815.482 169.074 819.03 163.28C833.767 139.208 842.58 116.91 842.58 103.691C842.58 98.2024 840.274 94.5854 836.776 94.5854C833.698 94.5854 826.362 99.9504 819.767 107.022C816.295 110.746 813.209 113.548 812.91 113.248C812.363 112.701 815.34 107.086 823.069 94.0854C825.358 90.2354 827.538 86.4104 827.914 85.5854C828.29 84.7604 829.428 82.7354 830.444 81.0854C832.729 77.3734 844.918 56.3224 857.078 35.0854C862.117 26.2854 868.566 15.0834 871.41 10.1924C874.253 5.30036 876.58 1.13836 876.58 0.94236C876.58 0.74536 871.067 0.589361 864.33 0.593361L852.08 0.601357L842.649 17.3434C829.618 40.4764 817.365 62.1684 810.428 74.3844C807.212 80.0484 804.58 84.9014 804.58 85.1694C804.58 85.4364 803.848 86.7734 802.953 88.1384L801.326 90.6214L795.878 80.8534C792.881 75.4814 788.257 67.2604 785.602 62.5854C782.947 57.9104 779.54 51.8354 778.03 49.0854C772.997 39.9154 753.689 6.42035 750.774 1.80335C750.171 0.848353 746.857 0.592353 737.787 0.803353L725.611 1.08537L729.91 8.58537C732.275 12.7104 737.731 22.1604 742.036 29.5854C746.341 37.0104 750.74 44.6604 751.812 46.5854C752.885 48.5104 755.002 52.1104 756.518 54.5854C759.677 59.7444 768.977 75.7064 773.122 83.0854C774.667 85.8354 779.002 93.3434 782.755 99.7704L789.58 111.455V129.481V147.507L783.953 156.796C771.89 176.708 756.377 209.132 747.547 232.886C744.348 241.493 744.097 241.831 736.178 248.183C719.44 261.61 704.98 270.513 699.83 270.563C696.594 270.595 696.875 266.347 700.531 259.973C703.944 254.023 708.315 250.053 714.462 247.322C718.117 245.698 720.066 245.489 726.212 246.065C732.039 246.611 733.577 246.476 733.565 245.42C733.501 239.904 722.252 236.905 712.08 239.692C709.88 240.295 704.396 243.006 699.893 245.716C695.389 248.426 686.389 253.147 679.893 256.206C650.464 270.064 631.547 272.455 631.595 262.312C631.604 260.537 631.941 258.635 632.345 258.084C632.749 257.534 636.516 255.387 640.715 253.313C655.337 246.09 661.853 239.063 659.548 233C658.102 229.198 655.737 227.654 651.298 227.617C643.768 227.553 636.982 232.117 630.7 241.469C628.625 244.558 626.242 248.885 625.403 251.085C623.429 256.266 612.203 264.192 594.137 273.16C581.794 279.287 578.686 280.358 577.293 278.965C576.952 278.624 580.533 270.858 585.25 261.707C595.437 241.947 596.587 236.906 592.217 231.176C590.698 229.184 588 227.5 585.841 226.545C584 225.5 583 225 580.5 224.5C575.295 224.133 573.112 224.311 568.078 225.033C563.573 225.709 556.774 228.879 544.58 235.989C537.906 239.881 529.18 242.413 526.279 241.3C525.379 240.955 523.976 239.075 523.16 237.122C521.323 232.727 517.561 231.003 513.78 232.825C512.342 233.518 510.921 235.096 510.622 236.332C509.588 240.62 480.87 262.599 459.014 275.831C439.755 287.49 425.976 292.176 422.669 288.192C420.325 285.367 421.905 273.423 426.057 262.585C430.332 251.425 441.091 229.169 447.247 218.752C449.63 214.719 451.58 211.303 451.58 211.16C451.58 210.252 472.018 176.944 472.939 176.35C473.567 175.946 476.667 175.609 479.83 175.6C485.293 175.586 485.58 175.46 485.58 173.085V170.585L500.83 170.559C515.343 170.535 533.865 169.264 537.767 168.026C539.75 167.396 540.232 164.969 538.489 164.388C537.889 164.188 534.176 164.348 530.239 164.743C526.302 165.138 514.643 165.489 504.33 165.523L485.58 165.585V159.99C485.58 154.814 486.03 153.721 491.58 145.424C498.307 135.367 498.901 132.955 494.898 131.95C492.62 131.378 491.718 131.865 488.913 135.181L485.61 139.085L485.595 124.835L485.58 110.585H512.186C541.718 110.585 546.332 109.934 557.052 104.251C569.129 97.8494 578.469 85.0134 582.118 69.8064C584.242 60.9534 583.684 44.8174 580.985 37.0854C575.291 20.7734 563.919 9.31435 547.58 3.42835C541.245 1.14635 540.082 1.07936 501.836 0.782357L462.592 0.478371L462.336 82.7824L462.08 165.085L443.58 165.694C433.405 166.03 423.955 166.564 422.58 166.882C421.205 167.199 418.167 167.718 415.83 168.034L411.58 168.609V84.5974V0.585366H398.81H386.04L380.333 11.8354C377.194 18.0234 371.772 28.4854 368.284 35.0854C356.728 56.9534 335.227 98.0494 334.145 100.335C333.447 101.811 332.564 102.357 331.58 101.921C330.755 101.555 327.223 100.287 323.73 99.1034L317.38 96.9494L311.689 86.0174C299.046 61.7314 290.157 44.7714 287.088 39.0854C285.308 35.7854 280.803 27.2354 277.077 20.0854C273.352 12.9354 269.429 5.62337 268.36 3.83537L266.417 0.585366H254.009H241.602L241.341 42.2334L241.08 83.8814L235.08 85.5944C223.118 89.0084 204.262 98.4524 195.912 105.211C193.619 107.067 191.257 108.585 190.662 108.585C189.899 108.585 189.58 92.6374 189.58 54.5854V0.585366H178.096H166.612L166.632 65.0974ZM557.194 39.4104C553.872 32.6214 547.937 26.4904 541.666 23.3684C537.304 21.1964 535.823 21.0704 511.33 20.7884L485.58 20.4904V55.5384V90.5854H511.187H536.794L543.11 87.5714C550.29 84.1444 553.792 80.4794 557.429 72.5854C559.652 67.7584 559.963 65.7384 559.967 56.0854C559.971 46.0834 559.719 44.5704 557.194 39.4104ZM293.207 96.2634C291.901 93.9654 285.33 81.2854 278.605 68.0854C271.88 54.8854 265.973 43.6574 265.478 43.1354C264.946 42.5724 264.58 56.9744 264.58 78.4684C264.58 98.4244 264.917 114.596 265.33 114.405C265.743 114.215 270.805 111.743 276.58 108.913C282.355 106.084 288.993 103.206 291.33 102.518C293.667 101.831 295.58 101.082 295.58 100.855C295.58 100.627 294.512 98.5614 293.207 96.2634ZM835.045 121.376C836.451 117.136 837.876 111.048 838.21 107.847C838.946 100.806 837.432 98.5994 833.672 101.233C830.237 103.639 824.299 110.351 818.125 118.804L812.58 126.397V146.191C812.58 158.028 812.944 165.603 813.485 165.035C816.971 161.374 831.61 131.73 835.045 121.376ZM328.516 110.825C329.639 108.362 329.5 107.932 326.913 105.862C324.342 103.805 321.58 102.868 321.58 104.054C321.58 104.949 325.791 112.597 326.537 113.059C326.95 113.314 327.841 112.309 328.516 110.825ZM206.167 168.085L223.911 150.148L241.655 132.212L241.367 124.541L241.08 116.871L238.12 120.978C236.492 123.237 228.637 134.76 220.664 146.585L206.167 168.085ZM791.83 175.733C789.787 175.599 789.58 175.078 789.58 170.085C789.58 167.06 789.213 164.585 788.765 164.585C787.73 164.585 766.007 209.043 761.029 221.352C758.968 226.449 757.604 230.942 757.998 231.336C759.794 233.132 788.421 200.948 802.03 181.835L805.768 176.585L801.424 176.437C799.035 176.356 796.405 176.197 795.58 176.085C794.755 175.973 793.067 175.814 791.83 175.733ZM313.33 250.087C320.604 246.132 327.846 239.207 327.358 236.673C326.436 231.883 317.744 237.113 310.199 246.997C308.209 249.604 306.58 252.192 306.58 252.748C306.58 253.303 309.618 252.106 313.33 250.087ZM640.121 249.461C645.916 246.737 654.58 238.966 654.58 236.492C654.58 232.89 649.328 234.107 643.938 238.957C639.665 242.803 633.468 251.585 635.027 251.585C635.343 251.585 637.635 250.629 640.121 249.461ZM370.613 245.724C371.695 244.426 372.58 242.738 372.58 241.974C372.58 240.067 369.935 240.217 369.187 242.167C368.853 243.037 368.595 244.724 368.613 245.917C368.646 248.078 368.653 248.077 370.613 245.724ZM514.126 258.618C518.752 250.286 519.449 246.957 516.963 245.075C514.354 243.099 514.151 243.161 510.934 246.916C503.258 255.876 499.918 261.729 498.9 268.003C498.364 271.301 498.514 271.585 500.783 271.585C504.328 271.585 509.973 266.1 514.126 258.618ZM362.407 296.45C366.341 292.604 367.812 287.804 367.4 280.164C367.224 276.907 366.602 274.086 366.019 273.894C365.435 273.701 361.715 276.888 357.752 280.975C350.49 288.465 346.049 296.039 347.185 298.999C348.742 303.056 357.078 301.66 362.407 296.45Z" fill="black"/>
<path fill-rule="evenodd" clip-rule="evenodd" d="M18.9847 16.7574C26.3017 9.02236 41.2397 1.88737 53.5797 0.232369C55.5047 -0.0266311 63.1547 -0.0766306 70.5797 0.120369C81.4297 0.408369 85.8367 0.990366 93.0307 3.08537C102.331 5.79437 115.851 12.2594 120.636 16.2864L123.401 18.6124L118.74 27.5824C116.177 32.5164 113.69 36.5604 113.214 36.5694C112.738 36.5784 110.263 35.1024 107.714 33.2904C101.003 28.5184 94.0537 25.0834 86.0797 22.5974C75.8477 19.4064 55.6427 19.4244 47.1387 22.6314C36.1947 26.7584 29.5907 35.5854 29.5907 46.0854C29.5907 59.8584 38.1667 67.8914 58.5797 73.2394C93.4187 82.3664 95.6467 83.0684 105.092 87.8834C120.439 95.7074 127.907 107.05 129.26 124.59C130.367 138.941 125.773 152.14 116.442 161.425C102.527 175.269 71.6877 180.88 44.5797 174.5C27.1877 170.407 7.91769 161.194 1.24969 153.785C1.18744 153.716 1.12695 153.65 1.06835 153.585C0.611871 153.082 0.269852 152.705 0.106511 152.262C-0.381563 150.938 0.725673 149.027 5.14141 141.402L5.72968 140.386L9.60869 133.687L16.2077 138.682C29.9417 149.077 45.2457 154.931 61.8467 156.138C78.3067 157.336 91.9267 153.966 98.9307 146.962C103.795 142.097 104.993 138.784 105.032 130.085C105.062 123.457 104.677 121.454 102.786 118.405C96.7877 108.735 86.5477 103.679 58.5797 96.5794C35.3497 90.6824 25.2017 86.1624 16.9857 78.0544C9.85769 71.0204 7.30969 64.1874 6.79069 50.7154C6.45269 41.9494 6.73468 39.3204 8.61568 33.7154C11.1337 26.2094 13.1277 22.9484 18.9847 16.7574ZM617.58 175.585V88.0854V0.585366H629.074H640.568L640.824 77.8354L641.08 155.085L687.33 155.345L733.58 155.605V165.595V175.585H675.58H617.58Z" fill="black"/>
<path d="M406.696 211.22C388.95 211.164 382.394 221.86 376.3 230.686L379.569 232.726L382.326 228.81C383.156 229.332 384.04 229.788 384.716 229.94C405.37 234.598 418.201 203.949 418.201 203.949C415.477 207.281 402.227 204.786 392.416 204.546C382.604 204.307 377.049 211.44 376.202 215.195C375.355 218.95 377.9 222.977 377.9 222.977C387.919 206.985 406.696 211.22 406.696 211.22Z" fill="black"/>
</svg>
